<svg id="visual" viewBox="0 0 900 600" width="900" height="600" xmlns="http://www.w3.org/2000/svg" xmlns:xlink="http://www.w3.org/1999/xlink" version="1.1"><path d="M0 362L90 349L180 367L270 354L360 405L450 371L540 423L630 400L720 421L810 398L900 359L900 601L810 601L720 601L630 601L540 601L450 601L360 601L270 601L180 601L90 601L0 601Z" fill="#c1ddf5"></path><path d="M0 432L90 419L180 455L270 428L360 426L450 414L540 403L630 455L720 463L810 445L900 442L900 601L810 601L720 601L630 601L540 601L450 601L360 601L270 601L180 601L90 601L0 601Z" fill="#add3f2"></path><path d="M0 522L90 486L180 517L270 463L360 478L450 505L540 493L630 513L720 480L810 469L900 477L900 601L810 601L720 601L630 601L540 601L450 601L360 601L270 601L180 601L90 601L0 601Z" fill="#95c3ea"></path><path d="M0 526L90 529L180 510L270 514L360 534L450 510L540 537L630 540L720 550L810 515L900 551L900 601L810 601L720 601L630 601L540 601L450 601L360 601L270 601L180 601L90 601L0 601Z" fill="#79addb"></path></svg>