<?xml version="1.0" encoding="UTF-8" standalone="no"?>
<!-- Created with Inkscape (http://www.inkscape.org/) -->

<svg
   width="70.629997mm"
   height="70.721451mm"
   viewBox="0 0 70.629997 70.721451"
   version="1.1"
   id="svg5"
   xml:space="preserve"
   xmlns:inkscape="http://www.inkscape.org/namespaces/inkscape"
   xmlns:sodipodi="http://sodipodi.sourceforge.net/DTD/sodipodi-0.dtd"
   xmlns="http://www.w3.org/2000/svg"
   xmlns:svg="http://www.w3.org/2000/svg"><sodipodi:namedview
     id="namedview7"
     pagecolor="#ffffff"
     bordercolor="#000000"
     borderopacity="0.25"
     inkscape:showpageshadow="2"
     inkscape:pageopacity="0.0"
     inkscape:pagecheckerboard="0"
     inkscape:deskcolor="#d1d1d1"
     inkscape:document-units="mm"
     showgrid="false"
     showguides="false"><sodipodi:guide
       position="6.7866258,25.876947"
       orientation="1,0"
       id="guide948"
       inkscape:locked="false" /><sodipodi:guide
       position="39.474198,69.987596"
       orientation="0,-1"
       id="guide950"
       inkscape:locked="false" /><sodipodi:guide
       position="41.055855,55.752686"
       orientation="0,-1"
       id="guide952"
       inkscape:locked="false" /><sodipodi:guide
       position="20.845797,10.411857"
       orientation="1,0"
       id="guide954"
       inkscape:locked="false" /></sodipodi:namedview><defs
     id="defs2" /><g
     inkscape:groupmode="layer"
     id="layer2"
     inkscape:label="Layer 2"
     transform="translate(-58.94,-75.185667)"><path
       style="fill:#0f57a9;fill-opacity:1;stroke:#0f57a9;stroke-width:1.065;stroke-dasharray:none;stroke-opacity:1"
       d="m 73.759615,139.85659 c 0,0 -8.692547,-14.02108 -8.05324,-30.86541 -0.0024,-10.038327 7.265148,-33.634711 32.719539,-33.268841 16.204206,0.232912 20.410476,10.054 20.410476,10.054 l -11.55664,6.431658 c 0,0 -2.7375,-2.018211 -7.537399,-2.070026 -7.955667,-0.08588 -20.438862,5.656656 -20.316121,18.369939 0.06925,7.17297 5.138777,16.49478 5.138777,16.49478 z"
       id="path956"
       sodipodi:nodetypes="ccsccsscc" /><path
       style="fill:#0f57a9;fill-opacity:1;stroke:#0f57a9;stroke-width:1.065;stroke-dasharray:none;stroke-opacity:1"
       d="m 107.59924,90.864057 c 3.40409,0.417909 17.13103,24.602213 17.13103,24.602213 0,0 -0.0204,0.40424 -6.16076,0.25004 -6.14041,-0.1542 -9.98461,-3.96438 -9.98461,-3.96438 0,0 -6.64531,8.37912 -11.40489,8.37912 -4.759579,0 -4.514623,-2.07855 -4.595905,-4.43465 -0.08128,-2.35611 10.639575,-24.994483 15.015135,-24.832343 z"
       id="path3114"
       sodipodi:nodetypes="ccscssc" /><path
       style="fill:#0f57a9;fill-opacity:1;stroke:#0f57a9;stroke-width:1.065;stroke-dasharray:none;stroke-opacity:1"
       d="m 116.55697,115.72119 c 0,0 4.25977,6.09287 4.10696,7.90562 -0.15281,1.81276 -2.26544,1.38086 -2.26544,1.38086 l 0.44048,1.679 -0.24611,2.02775 c 0,0 1.10851,0.19343 0.9911,1.08717 -0.11742,0.89373 -2.33752,1.21375 -2.33752,1.21375 0,0 1.9616,0.92589 1.97318,3.99027 0.0116,3.06437 -1.98517,2.24739 -1.98517,2.24739 0,0 -8.00481,-3.03344 -8.43334,5.82208 -8.06638,0.8497 -25.884848,2.2042 -25.884848,2.2042 l 2.51506,-2.95363 c 0,0 -1.406893,-1.87603 -4.089601,-1.74163 -2.682706,0.1344 4.68194,-14.04839 4.68194,-14.04839 0,0 -6.857124,-10.78664 -6.711085,-19.739 0.146039,-8.952356 8.339018,-16.406699 18.376532,-16.341826 10.037512,0.06487 9.727872,1.363017 9.727872,1.363017 z"
       id="path3116"
       sodipodi:nodetypes="cscccscsccccsczscc" /></g></svg>
