<?xml version="1.0" encoding="utf-8"?>
<svg viewBox="5.146 73.744 142.403 64.116" xmlns="http://www.w3.org/2000/svg">
  <g id="layer3" style="">
    <path style="fill:#ffffff;fill-opacity:1;stroke:#ffffff;stroke-width:1.1;stroke-dasharray:none;stroke-opacity:1" d="M 130.457 88.474 C 130.457 88.474 147.75 109.341 147.547 113.206 C 147.463 114.811 139.024 113.371 139.024 113.371 C 139.024 113.371 143.057 119.787 143.204 121.097 C 143.35 122.408 141.111 122.316 141.111 122.316 C 141.111 122.316 141.886 123.329 141.889 124.187 C 141.891 125.046 140.686 126.038 140.686 126.038 C 140.686 126.038 142.124 126.348 142.081 127.844 C 142.038 129.341 139.856 128.408 139.856 128.408 C 139.856 128.408 141.797 130.659 141.918 132.042 C 142.039 133.425 141.868 134.897 139.756 134.938 C 137.644 134.979 130.936 130.956 130.936 130.956 L 130.302 135.757 C 130.302 135.757 120.984 134.675 109.319 135.019 C 106.235 135.109 105.592 137.262 104.028 137.351 C 102.464 137.44 108.484 123.655 108.484 123.655 L 107.872 122.455 L 96.322 136.921 C 96.322 136.921 88.267 121.019 88.342 108.233 C 88.509 79.526 109.165 74.063 122.504 73.751 C 135.843 73.44 141.172 82.944 141.172 82.944 Z M 93.428 91.752 L 93.428 97.003 L 94.497 102.912 L 97.317 102.912 L 98.386 97.003 L 98.386 91.752 Z M 117.584 91.752 L 99.89 91.752 L 99.89 97.013 L 111.908 97.013 C 109.538 100.896 107.885 103.947 106.477 107.304 C 105.073 110.669 103.902 114.603 102.996 119.005 L 102.743 120.236 L 107.791 120.236 L 107.918 119.398 C 108.553 115.229 109.619 111.34 111.151 107.606 C 112.679 103.863 114.747 100.066 117.403 96.125 L 117.584 95.856 Z M 120.542 117.134 C 121.978 119.67 124.342 121.095 127.103 121.095 C 129.842 121.095 132.149 119.652 133.645 117.178 C 135.035 114.713 135.783 111.112 135.783 106.647 C 135.783 101.915 135.08 98.16 133.702 95.698 C 132.286 93.17 129.908 91.752 127.103 91.752 C 126.309 91.752 125.491 91.869 124.772 92.085 C 124.02 92.313 123.183 92.805 122.405 93.447 C 121.623 94.114 120.891 95.036 120.329 96.069 C 119.777 97.116 119.299 98.591 118.949 100.345 C 118.605 102.098 118.424 104.16 118.424 106.423 C 118.424 110.985 119.141 114.661 120.542 117.134 Z M 129.877 114.234 C 129.252 115.826 128.441 116.356 127.037 116.356 C 125.731 116.356 125.018 115.795 124.332 114.202 C 123.606 112.514 123.248 110.015 123.248 106.46 C 123.248 102.945 123.609 100.479 124.345 98.812 C 125.04 97.237 125.771 96.677 127.103 96.677 C 128.438 96.677 129.17 97.231 129.863 98.788 C 130.598 100.435 130.959 102.871 130.959 106.349 C 130.959 110.029 130.619 112.584 129.877 114.234 Z" id="path11013"/>
    <path d="M 23.013 83.108 L 20.732 83.108 L 20.165 79.923 Q 19.476 79.342 18.328 78.959 Q 17.18 78.576 15.665 78.576 Q 13.261 78.576 11.975 79.594 Q 10.69 80.612 10.69 82.25 Q 10.69 83.705 11.998 84.677 Q 13.307 85.649 16.231 86.383 Q 19.752 87.256 21.581 88.955 Q 23.411 90.654 23.411 93.165 Q 23.411 95.859 21.214 97.497 Q 19.017 99.135 15.466 99.135 Q 12.894 99.135 10.896 98.293 Q 8.898 97.451 7.643 96.089 L 7.643 91.94 L 9.909 91.94 L 10.491 95.14 Q 11.363 95.859 12.572 96.319 Q 13.782 96.778 15.466 96.778 Q 17.747 96.778 19.071 95.813 Q 20.395 94.849 20.395 93.196 Q 20.395 91.665 19.247 90.632 Q 18.099 89.598 15.19 88.894 Q 11.654 88.052 9.664 86.414 Q 7.674 84.776 7.674 82.296 Q 7.674 79.678 9.894 77.941 Q 12.113 76.204 15.665 76.204 Q 18.007 76.204 19.928 77.007 Q 21.849 77.811 23.013 78.959 Z M 47.726 80.964 L 47.65 80.949 L 40.44 98.814 L 38.434 98.814 L 31.224 80.964 L 31.148 80.98 L 31.454 89.996 L 31.454 96.456 L 33.949 96.885 L 33.949 98.814 L 25.943 98.814 L 25.943 96.885 L 28.438 96.456 L 28.438 78.898 L 25.943 78.469 L 25.943 76.525 L 28.438 76.525 L 32.296 76.525 L 39.399 94.635 L 39.491 94.635 L 46.578 76.525 L 52.947 76.525 L 52.947 78.469 L 50.451 78.898 L 50.451 96.456 L 52.947 96.885 L 52.947 98.814 L 44.94 98.814 L 44.94 96.885 L 47.436 96.456 L 47.436 89.996 Z M 55.087 78.469 L 55.087 76.525 L 63.094 76.525 L 63.094 78.469 L 60.598 78.898 L 60.598 86.598 L 71.406 86.598 L 71.406 78.898 L 68.911 78.469 L 68.911 76.525 L 71.406 76.525 L 74.422 76.525 L 76.917 76.525 L 76.917 78.469 L 74.422 78.898 L 74.422 96.456 L 76.917 96.885 L 76.917 98.814 L 68.911 98.814 L 68.911 96.885 L 71.406 96.456 L 71.406 88.971 L 60.598 88.971 L 60.598 96.456 L 63.094 96.885 L 63.094 98.814 L 55.087 98.814 L 55.087 96.885 L 57.583 96.456 L 57.583 78.898 Z M 95.296 83.108 L 93.015 83.108 L 92.449 79.923 Q 91.76 79.342 90.612 78.959 Q 89.464 78.576 87.948 78.576 Q 85.545 78.576 84.259 79.594 Q 82.973 80.612 82.973 82.25 Q 82.973 83.705 84.282 84.677 Q 85.591 85.649 88.515 86.383 Q 92.036 87.256 93.865 88.955 Q 95.694 90.654 95.694 93.165 Q 95.694 95.859 93.498 97.497 Q 91.301 99.135 87.749 99.135 Q 85.178 99.135 83.18 98.293 Q 81.182 97.451 79.927 96.089 L 79.927 91.94 L 82.192 91.94 L 82.774 95.14 Q 83.647 95.859 84.856 96.319 Q 86.065 96.778 87.749 96.778 Q 90.03 96.778 91.354 95.813 Q 92.679 94.849 92.679 93.196 Q 92.679 91.665 91.53 90.632 Q 90.382 89.598 87.474 88.894 Q 83.938 88.052 81.947 86.414 Q 79.957 84.776 79.957 82.296 Q 79.957 79.678 82.177 77.941 Q 84.397 76.204 87.948 76.204 Q 90.29 76.204 92.212 77.007 Q 94.133 77.811 95.296 78.959 Z" transform="matrix(0.888641, 0, 0, 1.125314, 0, 0)" style="fill: rgb(255, 255, 255); stroke: rgb(255, 255, 255); stroke-width: 1.74566px; white-space: pre;"/>
    <path d="M 11.196 115.888 Q 12.117 115.888 12.817 115.319 Q 13.518 114.75 13.518 113.923 L 15.181 113.923 L 15.2 113.98 Q 15.247 115.296 14.03 116.316 Q 12.813 117.335 11.196 117.335 Q 8.977 117.335 7.807 115.888 Q 6.637 114.44 6.637 112.25 L 6.637 111.855 Q 6.637 109.684 7.812 108.232 Q 8.987 106.779 11.196 106.779 Q 12.418 106.779 13.391 107.184 Q 14.364 107.588 15.003 108.293 L 15.087 110.549 L 13.612 110.549 L 13.207 108.951 Q 12.878 108.631 12.361 108.434 Q 11.844 108.236 11.196 108.236 Q 9.739 108.236 9.114 109.284 Q 8.489 110.332 8.489 111.855 L 8.489 112.25 Q 8.489 113.81 9.109 114.849 Q 9.729 115.888 11.196 115.888 Z M 19.551 103.668 L 19.551 102.474 L 22.935 102.474 L 22.935 115.69 L 24.467 115.954 L 24.467 117.138 L 19.551 117.138 L 19.551 115.954 L 21.083 115.69 L 21.083 103.931 Z M 35.319 117.138 Q 35.234 116.724 35.187 116.395 Q 35.14 116.066 35.121 115.737 Q 34.586 116.424 33.782 116.88 Q 32.978 117.335 32.066 117.335 Q 30.478 117.335 29.651 116.56 Q 28.823 115.784 28.823 114.374 Q 28.823 112.927 29.994 112.142 Q 31.164 111.357 33.204 111.357 L 35.112 111.357 L 35.112 110.173 Q 35.112 109.28 34.548 108.758 Q 33.984 108.236 32.978 108.236 Q 32.283 108.236 31.752 108.415 Q 31.22 108.593 30.891 108.904 L 30.694 109.975 L 29.265 109.975 L 29.265 108.001 Q 29.961 107.447 30.948 107.113 Q 31.935 106.779 33.091 106.779 Q 34.821 106.779 35.892 107.663 Q 36.964 108.546 36.964 110.191 L 36.964 115.089 Q 36.964 115.286 36.968 115.474 Q 36.973 115.662 36.992 115.85 L 37.744 115.954 L 37.744 117.138 Z M 32.339 115.784 Q 33.26 115.784 34.022 115.343 Q 34.783 114.901 35.112 114.28 L 35.112 112.607 L 33.138 112.607 Q 32.001 112.607 31.338 113.134 Q 30.675 113.66 30.675 114.412 Q 30.675 115.079 31.089 115.432 Q 31.502 115.784 32.339 115.784 Z M 49.874 110.163 L 48.483 110.163 L 48.182 108.941 Q 47.844 108.622 47.332 108.429 Q 46.819 108.236 46.171 108.236 Q 45.184 108.236 44.704 108.669 Q 44.225 109.101 44.225 109.712 Q 44.225 110.314 44.648 110.661 Q 45.071 111.009 46.368 111.282 Q 48.295 111.695 49.235 112.405 Q 50.175 113.115 50.175 114.309 Q 50.175 115.662 49.08 116.499 Q 47.985 117.335 46.218 117.335 Q 45.062 117.335 44.14 117.068 Q 43.219 116.8 42.495 116.292 L 42.486 113.97 L 43.877 113.97 L 44.225 115.333 Q 44.545 115.625 45.094 115.756 Q 45.644 115.888 46.218 115.888 Q 47.205 115.888 47.764 115.488 Q 48.323 115.089 48.323 114.44 Q 48.323 113.829 47.858 113.434 Q 47.393 113.04 46.096 112.748 Q 44.244 112.344 43.304 111.648 Q 42.364 110.953 42.364 109.768 Q 42.364 108.528 43.421 107.654 Q 44.479 106.779 46.171 106.779 Q 47.327 106.779 48.248 107.08 Q 49.169 107.381 49.78 107.917 Z M 62.512 110.163 L 61.121 110.163 L 60.82 108.941 Q 60.482 108.622 59.97 108.429 Q 59.457 108.236 58.809 108.236 Q 57.822 108.236 57.342 108.669 Q 56.863 109.101 56.863 109.712 Q 56.863 110.314 57.286 110.661 Q 57.709 111.009 59.006 111.282 Q 60.933 111.695 61.873 112.405 Q 62.813 113.115 62.813 114.309 Q 62.813 115.662 61.718 116.499 Q 60.623 117.335 58.856 117.335 Q 57.7 117.335 56.778 117.068 Q 55.857 116.8 55.133 116.292 L 55.124 113.97 L 56.515 113.97 L 56.863 115.333 Q 57.183 115.625 57.732 115.756 Q 58.282 115.888 58.856 115.888 Q 59.843 115.888 60.402 115.488 Q 60.961 115.089 60.961 114.44 Q 60.961 113.829 60.496 113.434 Q 60.031 113.04 58.734 112.748 Q 56.882 112.344 55.942 111.648 Q 55.002 110.953 55.002 109.768 Q 55.002 108.528 56.059 107.654 Q 57.117 106.779 58.809 106.779 Q 59.965 106.779 60.886 107.08 Q 61.807 107.381 62.418 107.917 Z M 74.96 111.959 Q 74.96 109.703 76.182 108.241 Q 77.403 106.779 79.5 106.779 Q 81.605 106.779 82.832 108.236 Q 84.059 109.693 84.059 111.959 L 84.059 112.165 Q 84.059 114.44 82.837 115.888 Q 81.615 117.335 79.518 117.335 Q 77.403 117.335 76.182 115.883 Q 74.96 114.431 74.96 112.165 Z M 76.811 112.165 Q 76.811 113.782 77.493 114.835 Q 78.174 115.888 79.518 115.888 Q 80.834 115.888 81.521 114.835 Q 82.207 113.782 82.207 112.165 L 82.207 111.959 Q 82.207 110.361 81.521 109.298 Q 80.834 108.236 79.5 108.236 Q 78.165 108.236 77.488 109.298 Q 76.811 110.361 76.811 111.959 Z M 88.381 108.34 L 88.381 106.967 L 89.969 106.967 L 89.969 105.68 Q 89.969 104.053 90.82 103.165 Q 91.671 102.277 93.193 102.277 Q 93.513 102.277 93.837 102.328 Q 94.162 102.38 94.556 102.474 L 94.331 103.884 Q 94.162 103.847 93.922 103.818 Q 93.682 103.79 93.428 103.79 Q 92.611 103.79 92.216 104.274 Q 91.821 104.758 91.821 105.68 L 91.821 106.967 L 93.945 106.967 L 93.945 108.34 L 91.821 108.34 L 91.821 115.69 L 93.353 115.954 L 93.353 117.138 L 88.437 117.138 L 88.437 115.954 L 89.969 115.69 L 89.969 108.34 Z" transform="matrix(0.888641, 0, 0, 1.125314, 0, 0)" style="fill: rgb(255, 255, 255); stroke: rgb(255, 255, 255); stroke-width: 1.74566px; white-space: pre;"/>
  </g>
</svg>